<svg width="98" height="40" viewBox="0 0 98 40" fill="none" xmlns="http://www.w3.org/2000/svg">
<path d="M52.416 26L51.392 22.592H47.136L46.112 26H44.104L47.784 14.16H50.776L54.456 26H52.416ZM47.648 20.888H50.88L49.264 15.504L47.648 20.888ZM58.2089 26.152C57.7182 26.152 57.2142 26.112 56.6969 26.032C56.1849 25.952 55.7129 25.8347 55.2809 25.68V23.96C55.7449 24.1147 56.2302 24.2347 56.7369 24.32C57.2435 24.4 57.7289 24.44 58.1929 24.44C59.7289 24.44 60.4969 23.888 60.4969 22.784C60.4969 22.48 60.4382 22.224 60.3209 22.016C60.2035 21.808 60.0115 21.6267 59.7449 21.472C59.4835 21.3173 59.1155 21.1707 58.6409 21.032L57.8809 20.808C56.9475 20.536 56.2382 20.128 55.7529 19.584C55.2675 19.04 55.0249 18.3387 55.0249 17.48C55.0249 16.7547 55.1902 16.1333 55.5209 15.616C55.8569 15.0987 56.3555 14.7013 57.0169 14.424C57.6782 14.1467 58.4942 14.008 59.4649 14.008C59.9289 14.008 60.3795 14.0373 60.8169 14.096C61.2542 14.1493 61.6462 14.2293 61.9929 14.336V16.056C61.2729 15.832 60.4782 15.72 59.6089 15.72C58.7289 15.72 58.0889 15.8613 57.6889 16.144C57.2889 16.4267 57.0889 16.8293 57.0889 17.352C57.0889 17.6453 57.1395 17.8907 57.2409 18.088C57.3475 18.2853 57.5209 18.4587 57.7609 18.608C58.0062 18.752 58.3449 18.888 58.7769 19.016L59.5289 19.24C60.5475 19.5333 61.3049 19.952 61.8009 20.496C62.3022 21.0347 62.5529 21.744 62.5529 22.624C62.5529 23.3547 62.3822 23.9867 62.0409 24.52C61.6995 25.048 61.2035 25.4533 60.5529 25.736C59.9022 26.0133 59.1209 26.152 58.2089 26.152ZM68.9122 26.152C67.3602 26.152 66.1469 25.656 65.2722 24.664C64.3976 23.672 63.9602 22.144 63.9602 20.08C63.9602 18.0213 64.3976 16.496 65.2722 15.504C66.1469 14.5067 67.3602 14.008 68.9122 14.008C70.4642 14.008 71.6776 14.504 72.5522 15.496C73.4269 16.488 73.8643 18.016 73.8643 20.08C73.8643 22.1387 73.4269 23.6667 72.5522 24.664C71.6776 25.656 70.4642 26.152 68.9122 26.152ZM68.9122 24.448C69.8402 24.448 70.5469 24.1147 71.0322 23.448C71.5176 22.776 71.7603 21.6693 71.7603 20.128C71.7603 18.5493 71.5176 17.4187 71.0322 16.736C70.5469 16.0533 69.8402 15.712 68.9122 15.712C67.9896 15.712 67.2856 16.048 66.8002 16.72C66.3149 17.392 66.0722 18.496 66.0722 20.032C66.0722 21.616 66.3122 22.7493 66.7922 23.432C67.2776 24.1093 67.9842 24.448 68.9122 24.448ZM83.1946 14.16H85.1226V26H83.0506L77.8506 17.416V26H75.9226V14.16H77.9946L83.1946 22.744V14.16ZM94.9304 26L93.9064 22.592H89.6504L88.6264 26H86.6184L90.2984 14.16H93.2904L96.9704 26H94.9304ZM90.1624 20.888H93.3944L91.7784 15.504L90.1624 20.888Z" fill="black" fill-opacity="0.65"/>
<path d="M31.2121 7.27122C33.9665 11.2402 34.5395 16.5119 33.5443 21.6309C32.5491 26.7397 29.9957 31.706 25.1906 35.3697C20.3754 39.0436 13.3084 41.425 8.66406 39.0436C4.0097 36.6622 1.76796 29.5078 0.662175 22.6486C-0.443613 15.7893 -0.423509 9.22519 2.75312 5.17477C5.91969 1.11417 12.2327 -0.442898 17.8622 0.106657C23.5017 0.666388 28.4476 3.31239 31.2121 7.27122Z" fill="#1a27c9"/>
</svg>
